<svg xmlns="http://www.w3.org/2000/svg" width="1200" height="1200" viewBox="0 0 1200 1200">
  <defs>
    <linearGradient id="bg" x1="0" y1="0" x2="1" y2="1">
      <stop offset="0" stop-color="#1a0f0a"/>
      <stop offset="1" stop-color="#d94f30"/>
    </linearGradient>
  </defs>
  <rect width="1200" height="1200" fill="url(#bg)"/>

  <g transform="translate(600,400) scale(6.2)">
    <path d="M20 3C13.37 3 8 8.37 8 15c0 9 12 22 12 22s12-13 12-22c0-6.63-5.37-12-12-12z" fill="#ffffff"/>
    <g stroke="#D94F30" stroke-width="1.6" stroke-linecap="round" fill="none">
      <line x1="15.5" y1="9" x2="15.5" y2="15.5"/>
      <line x1="14.2" y1="9" x2="14.2" y2="12"/>
      <line x1="16.8" y1="9" x2="16.8" y2="12"/>
      <line x1="15.5" y1="15.5" x2="15.5" y2="21.5"/>
      <path d="M24.5 9v6.2c0 1.1-.9 2-2 2v4.3"/>
    </g>
  </g>

  <text x="600" y="720" font-size="90" fill="#ffffff" text-anchor="middle" font-family="-apple-system, Arial, sans-serif" font-weight="800">nereden<tspan fill="#ffcdb8">yiyelim</tspan></text>
  <text x="600" y="800" font-size="38" fill="#ffd9c9" text-anchor="middle" font-family="-apple-system, Arial, sans-serif" font-weight="600">Türkiye'nin 81 İlinde Özel Seçilmiş Mekanlar</text>
</svg>
